classDiagram
    class ReprodutorMusical {
        <<interface>>
        +tocar() void
        +pausar() void
        +selecionarMusica(String musica) void
    }
    
    class AparelhoTelefonico {
        <<interface>>
        +ligar(String numero) void
        +atender() void
        +iniciarCorreioVoz() void
    }
    
    class NavegadorInternet {
        <<interface>>
        +exibirPagina(String url) void
        +adicionarNovaAba() void
        +atualizarPagina() void
    }
    
    class iPhone {
        -musicaAtual: String
        -paginaAtual: String
        -emChamada: boolean
        +iPhone()
        +tocar() void
        +pausar() void
        +selecionarMusica(String musica) void
        +ligar(String numero) void
        +atender() void
        +iniciarCorreioVoz() void
        +exibirPagina(String url) void
        +adicionarNovaAba() void
        +atualizarPagina() void
    }
    
    iPhone ..|> ReprodutorMusical : implements
    iPhone ..|> AparelhoTelefonico : implements
    iPhone ..|> NavegadorInternet : implements